<?xml version="1.0" encoding="UTF-8"?><svg xmlns="http://www.w3.org/2000/svg" xmlns:xlink="http://www.w3.org/1999/xlink" viewBox="0 0 50 50" version="1.1"><path class="logo" d="M26 2C23 8 13.695 9.645 9 6v29c0 4 3 7 8 8s7 2 9 5c2-3 4-4 9-5s8-4 8-8V6c-4.695 3.645-14 2-17-4zm3.41 6.152c.227.004.41.016.543.028-.453.21-1.293.656-2.312 1.468l-.75-.375c-.118.075-.235.157-.356.239l2.29 1.144c.105-.086.21-.172.316-.254l-.922-.464a34.51 34.51 0 0 1 2.05-1.602c.301.687 1.618 4.125-.484 7.297-2.566 3.879-7.183 3.504-7.996 3.402.29-.664 1.36-3.047 2.7-5.066l.855.426c.062-.11.125-.215.191-.317l-2.242-1.125c-.063.106-.121.215-.18.324l.903.453c-1.286 2.067-2.172 4.325-2.45 5.082-.324-.812-1.328-3.945.825-7.351 1.925-3.05 5.445-3.344 7.02-3.309zM12.512 9.965l.566 1.598h1.813l-1.442 1.124.547 1.72-1.484-1.11-1.485 1.047.567-1.668-1.39-1.114h1.733zm5.758 0l.574 1.598h1.8l-1.44 1.124.55 1.72-1.488-1.11-1.485 1.047.574-1.668-1.398-1.114h1.742zm15.39 0l.574 1.598h1.805l-1.441 1.124.55 1.72-1.488-1.11-1.484 1.047.574-1.668-1.395-1.114h1.735zm5.762.004l.57 1.594h1.805l-1.438 1.124.547 1.72-1.484-1.11-1.484 1.047.566-1.668-1.395-1.114h1.739zm-13.629.101c-.113.094-.23.188-.34.285l2.363 1.188c.11-.102.22-.2.325-.293zm-.988.895c-.09.09-.18.183-.27.281l2.371 1.188c.09-.094.18-.188.27-.278zm-.82.937c-.087.11-.169.223-.25.336l2.312 1.16c.09-.109.18-.218.27-.324zm-11.43 3.286l.57 1.593h1.809l-1.442 1.125.551 1.723-1.488-1.113-1.485 1.047.57-1.668-1.394-1.114h1.738zm5.715 0l.574 1.593h1.8l-1.44 1.125.55 1.723-1.488-1.113-1.485 1.047.574-1.668-1.398-1.114h1.742zm15.433 0l.574 1.593h1.805l-1.441 1.125.55 1.723-1.488-1.113-1.484 1.047.574-1.668-1.398-1.114h1.742zm5.719 0l.57 1.593h1.805l-1.438 1.125.547 1.723-1.484-1.113-1.484 1.047.566-1.668-1.395-1.114h1.739zM11 21h30v13c0 4-2.648 6-7.059 6.883-4.41.883-6.175 1.469-7.941 4.117-1.766-2.648-3.508-3.344-7.941-4.117C13 40 11 38 11 34zm1.402 1.574v2.29h.782v10.09c-.63-.036-1.18-.032-1.18-.032l.191 2.328s1.309.055 2.25.285c.762.192 2.653.985 2.653.985l-.207-2.579s-.375-.218-.97-.453v-4.77l2.966 8.31 2.633.796V25h.765v-2.293h-4.3V25h.796v5.602l-2.86-8.024v-.004zm10.88.133V25h.98v13.262a36.237 36.237 0 0 0-1.121-.106v2.078s1.3.133 2.218.407c.743.218 2.567 1.05 2.567 1.05v-2.293s-.352-.218-.926-.464v-7.418h1.434l.343.941h1.54v-4.25h-1.54l-.37 1.016H27V25h1.805l.586 1.348h1.859v-3.641zm8.85 0v1.938l.798.359v12.05c-.465.235-.86.466-1.18.665v2.62c.867-.487 3.02-1.69 4.07-2.105 2.012-.793 4.176-.976 4.176-.976v-5.055h-2.164v3.258a38.17 38.17 0 0 0-2.16.523v-10.98l.797-.36v-1.937z" id="surface1"/><metadata><rdf:RDF xmlns:rdf="http://www.w3.org/1999/02/22-rdf-syntax-ns#" xmlns:rdfs="http://www.w3.org/2000/01/rdf-schema#" xmlns:dc="http://purl.org/dc/elements/1.1/"><rdf:Description about="https://iconscout.com/legal#licenses" dc:title="nfl" dc:description="nfl" dc:publisher="Iconscout" dc:date="2017-12-09" dc:format="image/svg+xml" dc:language="en"><dc:creator><rdf:Bag><rdf:li>Icons8</rdf:li></rdf:Bag></dc:creator></rdf:Description></rdf:RDF></metadata></svg>